<?xml version="1.0" encoding="iso-8859-1"?>
<!-- Generator: Adobe Illustrator 19.0.0, SVG Export Plug-In . SVG Version: 6.00 Build 0)  -->
<svg version="1.1" id="Layer_1" xmlns="http://www.w3.org/2000/svg" xmlns:xlink="http://www.w3.org/1999/xlink" x="0px" y="0px"
	 viewBox="0 0 511.991 511.991" style="enable-background:new 0 0 511.991 511.991;" xml:space="preserve">
<circle style="fill:#FFD630;" cx="255.995" cy="255.995" r="255.995"/>
<path style="fill:#F5BE18;" d="M511.942,261.046l-62.839-62.839L72.414,306.97l206.348,203.997
	C407.822,499.615,509.42,392.457,511.942,261.046z"/>
<path style="fill:#3A99D7;" d="M73.159,194.021l17.945-3.096c0-3.153,2.58-5.79,5.79-5.79h203.596c1.835,0,3.44,0.86,4.53,2.179
	h124.474c3.554,0,6.479,2.924,6.479,6.479l0,0v0.229h2.981c7.052,0,12.785,4.702,12.785,10.435v92.08
	c0,5.733-5.733,10.435-12.785,10.435H73.274c-7.052,0-13.244-4.701-12.785-10.435l7.683-91.736
	c0.458-5.733-1.95-10.836,5.103-10.836L73.159,194.021z"/>
<rect x="93.859" y="212.257" style="fill:#C1E9FF;" width="26.317" height="86.176"/>
<rect x="97.47" y="215.689" style="fill:#FFFFFF;" width="19.038" height="33.144"/>
<rect x="381.677" y="212.257" style="fill:#C1E9FF;" width="26.317" height="86.176"/>
<rect x="385.289" y="215.689" style="fill:#FFFFFF;" width="19.038" height="33.144"/>
<rect x="409.829" y="212.257" style="fill:#C1E9FF;" width="26.317" height="86.176"/>
<rect x="413.44" y="215.689" style="fill:#FFFFFF;" width="19.038" height="33.144"/>
<path style="fill:#E84F4F;" d="M451.626,290.688v5.905c0,5.733-5.733,10.435-12.785,10.435H73.159
	c-7.052,0-12.785-4.701-12.785-10.435v-5.905H451.626z"/>
<path style="fill:#333333;" d="M149.701,279.507c-13.072,0-23.68,10.607-23.68,23.679c0,13.071,10.607,23.68,23.68,23.68
	s23.68-10.607,23.68-23.68C173.38,290.114,162.773,279.507,149.701,279.507z"/>
<path style="fill:#E6E6E6;" d="M149.701,288.795c-7.969,0-14.391,6.479-14.391,14.391c0,7.969,6.479,14.391,14.391,14.391
	c7.969,0,14.391-6.479,14.391-14.391C164.093,295.217,157.613,288.795,149.701,288.795z"/>
<path style="fill:#B3B3B3;" d="M149.701,297.568c-3.096,0-5.619,2.523-5.619,5.618c0,3.096,2.523,5.618,5.619,5.618
	c3.096,0,5.619-2.523,5.619-5.618C155.32,300.091,152.797,297.568,149.701,297.568z"/>
<path style="fill:#C1E9FF;" d="M130.093,202.908h35.777c1.089,0,1.95,0.917,1.95,2.007v28.266c0,1.089-0.86,2.007-1.95,2.007
	h-35.777c-1.089,0-1.95-0.917-1.95-2.007v-28.266C128.143,203.825,129.003,202.908,130.093,202.908z M336.326,202.908h35.777
	c1.089,0,1.95,0.917,1.95,2.007v28.266c0,1.089-0.86,2.007-1.95,2.007h-35.777c-1.089,0-1.95-0.917-1.95-2.007v-28.266
	C334.377,203.825,335.236,202.908,336.326,202.908z M284.782,202.908h35.777c1.089,0,1.95,0.917,1.95,2.007v28.266
	c0,1.089-0.86,2.007-1.95,2.007h-35.777c-1.089,0-1.95-0.917-1.95-2.007v-28.266C282.833,203.825,283.693,202.908,284.782,202.908z
	 M233.238,202.908h35.777c1.089,0,1.95,0.917,1.95,2.007v28.266c0,1.089-0.86,2.007-1.95,2.007h-35.777
	c-1.089,0-1.95-0.917-1.95-2.007v-28.266C231.288,203.825,232.149,202.908,233.238,202.908z M181.694,202.908h35.777
	c1.089,0,1.95,0.917,1.95,2.007v28.266c0,1.089-0.86,2.007-1.95,2.007h-35.777c-1.089,0-1.95-0.917-1.95-2.007v-28.266
	C179.745,203.825,180.604,202.908,181.694,202.908z"/>
<path style="fill:#FFFFFF;" d="M67.712,209.157l12.384-0.229c2.465-0.057,4.472,2.007,4.472,4.472v50.111
	c0,2.465-2.007,4.472-4.472,4.472H62.782c-3.382,0.287,0.917-62.667,4.931-58.883L67.712,209.157L67.712,209.157z"/>
<path style="fill:#333333;" d="M356.049,279.507c-13.072,0-23.68,10.607-23.68,23.679c0,13.071,10.607,23.68,23.68,23.68
	s23.679-10.607,23.679-23.68C379.727,290.114,369.121,279.507,356.049,279.507z"/>
<path style="fill:#E6E6E6;" d="M356.049,288.795c-7.969,0-14.391,6.479-14.391,14.391c0,7.969,6.479,14.391,14.391,14.391
	c7.969,0,14.391-6.479,14.391-14.391C370.44,295.217,363.961,288.795,356.049,288.795z"/>
<path style="fill:#B3B3B3;" d="M356.049,297.568c-3.096,0-5.619,2.523-5.619,5.618c0,3.096,2.523,5.618,5.619,5.618
	c3.096,0,5.618-2.523,5.618-5.618C361.668,300.091,359.145,297.568,356.049,297.568z"/>
<path style="fill:#FFFFFF;" d="M67.139,275.723h8.945c2.375,0,4.3,1.925,4.3,4.3v3.096c0,2.375-1.925,4.3-4.3,4.3h-8.945
	c-2.375,0-4.3-1.925-4.3-4.3v-3.096C62.839,277.648,64.764,275.723,67.139,275.723z"/>
<path style="fill:#666666;" d="M65.591,293.096h2.179c1.615,0,2.924,1.31,2.924,2.924v2.179c0,1.615-1.31,2.924-2.924,2.924h-2.179
	c-1.615,0-2.924-1.31-2.924-2.924v-2.179C62.667,294.404,63.976,293.096,65.591,293.096z"/>
<g>
</g>
<g>
</g>
<g>
</g>
<g>
</g>
<g>
</g>
<g>
</g>
<g>
</g>
<g>
</g>
<g>
</g>
<g>
</g>
<g>
</g>
<g>
</g>
<g>
</g>
<g>
</g>
<g>
</g>
</svg>
