<svg width="43" height="43" viewBox="0 0 43 43" fill="none" xmlns="http://www.w3.org/2000/svg">
<path d="M21.5 28.6667L20.7929 29.3738L21.5 30.0809L22.2071 29.3738L21.5 28.6667ZM22.5 7.16667C22.5 6.61439 22.0523 6.16667 21.5 6.16667C20.9477 6.16667 20.5 6.61439 20.5 7.16667L22.5 7.16667ZM10.0429 18.6238L20.7929 29.3738L22.2071 27.9596L11.4571 17.2096L10.0429 18.6238ZM22.2071 29.3738L32.9571 18.6238L31.5429 17.2096L20.7929 27.9596L22.2071 29.3738ZM22.5 28.6667L22.5 7.16667L20.5 7.16667L20.5 28.6667L22.5 28.6667Z" fill="#0369A1"/>
<path d="M10.75 37.625H32.25" stroke="#0369A1" stroke-width="2" stroke-linecap="round"/>
</svg>
