<svg width="20" height="21" viewBox="0 0 20 21" fill="none" xmlns="http://www.w3.org/2000/svg">
<path d="M10 13.8333L9.29289 14.5404L10 15.2475L10.7071 14.5404L10 13.8333ZM11 3.83331C11 3.28103 10.5523 2.83331 10 2.83331C9.44772 2.83331 9 3.28103 9 3.83331L11 3.83331ZM4.29289 9.54042L9.29289 14.5404L10.7071 13.1262L5.70711 8.12621L4.29289 9.54042ZM10.7071 14.5404L15.7071 9.54042L14.2929 8.12621L9.29289 13.1262L10.7071 14.5404ZM11 13.8333L11 3.83331L9 3.83331L9 13.8333L11 13.8333Z" fill="white"/>
<path d="M5 18H15" stroke="white" stroke-width="2" stroke-linecap="round"/>
</svg>
