<svg width="40" height="40" viewBox="0 0 40 40" fill="none" xmlns="http://www.w3.org/2000/svg">
<path d="M8.33325 21.266C8.33325 19.0031 8.33325 17.8716 8.79069 16.8771C9.24812 15.8825 10.1072 15.1461 11.8253 13.6735L13.492 12.2449C16.5975 9.583 18.1503 8.25206 19.9999 8.25206C21.8495 8.25206 23.4023 9.583 26.5078 12.2449L28.1745 13.6735C29.8926 15.1461 30.7517 15.8825 31.2092 16.8771C31.6666 17.8716 31.6666 19.0031 31.6666 21.266V28.3333C31.6666 31.476 31.6666 33.0474 30.6903 34.0237C29.714 35 28.1426 35 24.9999 35H14.9999C11.8572 35 10.2859 35 9.30956 34.0237C8.33325 33.0474 8.33325 31.476 8.33325 28.3333V21.266Z" stroke="#0284C7" stroke-width="2"/>
<path d="M24.1666 35V26C24.1666 25.4477 23.7189 25 23.1666 25H16.8333C16.281 25 15.8333 25.4477 15.8333 26V35" stroke="#0284C7" stroke-width="2" stroke-linecap="round" stroke-linejoin="round"/>
</svg>
