<svg width="60" height="60" viewBox="0 0 60 60" fill="none" xmlns="http://www.w3.org/2000/svg">
<path d="M18 30.9932C15 31.1342 9 29.1328 9 20" stroke="#0284C7"/>
<path d="M18 38.9934C14 39.1313 6 37.1724 6 28.2333" stroke="#0284C7"/>
<path d="M42 31.4513C45 31.5981 51 29.5134 51 20" stroke="#0284C7"/>
<path d="M42 39.7848C46 39.9285 54 37.888 54 28.5764" stroke="#0284C7"/>
<circle cx="30" cy="30" r="23.5" stroke="#0284C7" stroke-width="2" stroke-linecap="round"/>
<ellipse cx="22.5" cy="25" rx="2.5" ry="2.5" fill="#0284C7" stroke="#0284C7" stroke-linecap="round"/>
<circle cx="37.5" cy="25" r="2.5" fill="#0284C7" stroke="#0284C7" stroke-linecap="round"/>
<path fill-rule="evenodd" clip-rule="evenodd" d="M15.3694 29.4C15.2795 29.4 15.2345 29.4 15.1926 29.4154C15.1508 29.4308 15.1172 29.4594 15.05 29.5167C12.3916 31.7816 10.7999 34.663 10.7999 37.8C10.7999 45.0902 19.3961 51 29.9999 51C40.6038 51 49.1999 45.0902 49.1999 37.8C49.1999 34.663 47.6083 31.7816 44.9499 29.5167C44.8827 29.4594 44.849 29.4308 44.8072 29.4154C44.7654 29.4 44.7204 29.4 44.6304 29.4H15.3694Z" fill="#0284C7"/>
</svg>
