<svg width="40" height="40" viewBox="0 0 40 40" fill="none" xmlns="http://www.w3.org/2000/svg">
<path d="M20.3965 33.1425L20.6201 33.5898L20.6201 33.5898L20.3965 33.1425ZM19.6033 33.1425L19.3798 33.5898L19.3798 33.5898L19.6033 33.1425ZM31.1666 18.3333C31.1666 22.4925 28.9605 25.8186 26.4488 28.2573C23.9386 30.6945 21.172 32.196 20.173 32.6953L20.6201 33.5898C21.6625 33.0688 24.5309 31.5133 27.1454 28.9748C29.7583 26.4378 32.1666 22.8694 32.1666 18.3333H31.1666ZM19.9999 7.16666C26.1671 7.16666 31.1666 12.1662 31.1666 18.3333H32.1666C32.1666 11.6139 26.7194 6.16666 19.9999 6.16666V7.16666ZM8.83325 18.3333C8.83325 12.1662 13.8327 7.16666 19.9999 7.16666V6.16666C13.2805 6.16666 7.83325 11.6139 7.83325 18.3333H8.83325ZM19.8269 32.6953C18.8279 32.196 16.0612 30.6945 13.5511 28.2573C11.0393 25.8186 8.83325 22.4925 8.83325 18.3333H7.83325C7.83325 22.8694 10.2415 26.4378 12.8545 28.9748C15.469 31.5133 18.3374 33.0688 19.3798 33.5898L19.8269 32.6953ZM20.173 32.6953C20.0589 32.7523 19.9409 32.7523 19.8269 32.6953L19.3798 33.5898C19.7753 33.7875 20.2245 33.7875 20.6201 33.5898L20.173 32.6953ZM24.4999 18.3333C24.4999 20.8186 22.4852 22.8333 19.9999 22.8333V23.8333C23.0375 23.8333 25.4999 21.3709 25.4999 18.3333H24.4999ZM19.9999 13.8333C22.4852 13.8333 24.4999 15.848 24.4999 18.3333H25.4999C25.4999 15.2958 23.0375 12.8333 19.9999 12.8333V13.8333ZM15.4999 18.3333C15.4999 15.848 17.5146 13.8333 19.9999 13.8333V12.8333C16.9624 12.8333 14.4999 15.2958 14.4999 18.3333H15.4999ZM19.9999 22.8333C17.5146 22.8333 15.4999 20.8186 15.4999 18.3333H14.4999C14.4999 21.3709 16.9624 23.8333 19.9999 23.8333V22.8333Z" fill="#0369A1"/>
</svg>
