<svg width="60" height="60" viewBox="0 0 60 60" fill="none" xmlns="http://www.w3.org/2000/svg">
<circle cx="30" cy="30" r="24" stroke="#0284C7" stroke-width="3" stroke-linecap="round"/>
<path d="M21.0223 41.659C22.0002 41.4472 23.3427 41.2832 24.892 41.1714C26.453 41.0587 28.2139 41 30 41C31.7861 41 33.547 41.0587 35.108 41.1714C36.6573 41.2832 37.9998 41.4472 38.9777 41.659" stroke="#0284C7" stroke-width="3" stroke-linecap="round"/>
<mask id="path-3-outside-1_158_583" maskUnits="userSpaceOnUse" x="19" y="24.5" width="7" height="4" fill="black">
<rect fill="white" x="19" y="24.5" width="7" height="4"/>
<path d="M24.5 25C24.7424 25 24.8636 25 24.9386 25.0918C25.0137 25.1835 24.9925 25.2879 24.9502 25.4967C24.8533 25.9747 24.6178 26.4178 24.2678 26.7678C23.7989 27.2366 23.163 27.5 22.5 27.5C21.837 27.5 21.2011 27.2366 20.7322 26.7678C20.3822 26.4178 20.1467 25.9747 20.0498 25.4967C20.0075 25.2879 19.9863 25.1835 20.0614 25.0918C20.1364 25 20.2576 25 20.5 25L22.5 25H24.5Z"/>
</mask>
<path d="M24.5 25C24.7424 25 24.8636 25 24.9386 25.0918C25.0137 25.1835 24.9925 25.2879 24.9502 25.4967C24.8533 25.9747 24.6178 26.4178 24.2678 26.7678C23.7989 27.2366 23.163 27.5 22.5 27.5C21.837 27.5 21.2011 27.2366 20.7322 26.7678C20.3822 26.4178 20.1467 25.9747 20.0498 25.4967C20.0075 25.2879 19.9863 25.1835 20.0614 25.0918C20.1364 25 20.2576 25 20.5 25L22.5 25H24.5Z" fill="#0284C7"/>
<path d="M24.5 25C24.7424 25 24.8636 25 24.9386 25.0918C25.0137 25.1835 24.9925 25.2879 24.9502 25.4967C24.8533 25.9747 24.6178 26.4178 24.2678 26.7678C23.7989 27.2366 23.163 27.5 22.5 27.5C21.837 27.5 21.2011 27.2366 20.7322 26.7678C20.3822 26.4178 20.1467 25.9747 20.0498 25.4967C20.0075 25.2879 19.9863 25.1835 20.0614 25.0918C20.1364 25 20.2576 25 20.5 25L22.5 25H24.5Z" stroke="#0284C7" stroke-linecap="round" mask="url(#path-3-outside-1_158_583)"/>
<mask id="path-4-outside-2_158_583" maskUnits="userSpaceOnUse" x="34" y="24.5" width="7" height="4" fill="black">
<rect fill="white" x="34" y="24.5" width="7" height="4"/>
<path d="M39.5 25C39.7424 25 39.8636 25 39.9386 25.0918C40.0137 25.1835 39.9925 25.2879 39.9502 25.4967C39.8533 25.9747 39.6178 26.4178 39.2678 26.7678C38.7989 27.2366 38.163 27.5 37.5 27.5C36.837 27.5 36.2011 27.2366 35.7322 26.7678C35.3822 26.4178 35.1467 25.9747 35.0498 25.4967C35.0075 25.2879 34.9863 25.1835 35.0614 25.0918C35.1364 25 35.2576 25 35.5 25L37.5 25H39.5Z"/>
</mask>
<path d="M39.5 25C39.7424 25 39.8636 25 39.9386 25.0918C40.0137 25.1835 39.9925 25.2879 39.9502 25.4967C39.8533 25.9747 39.6178 26.4178 39.2678 26.7678C38.7989 27.2366 38.163 27.5 37.5 27.5C36.837 27.5 36.2011 27.2366 35.7322 26.7678C35.3822 26.4178 35.1467 25.9747 35.0498 25.4967C35.0075 25.2879 34.9863 25.1835 35.0614 25.0918C35.1364 25 35.2576 25 35.5 25L37.5 25H39.5Z" fill="#0284C7"/>
<path d="M39.5 25C39.7424 25 39.8636 25 39.9386 25.0918C40.0137 25.1835 39.9925 25.2879 39.9502 25.4967C39.8533 25.9747 39.6178 26.4178 39.2678 26.7678C38.7989 27.2366 38.163 27.5 37.5 27.5C36.837 27.5 36.2011 27.2366 35.7322 26.7678C35.3822 26.4178 35.1467 25.9747 35.0498 25.4967C35.0075 25.2879 34.9863 25.1835 35.0614 25.0918C35.1364 25 35.2576 25 35.5 25L37.5 25H39.5Z" stroke="#0284C7" stroke-linecap="round" mask="url(#path-4-outside-2_158_583)"/>
</svg>
