<svg width="20" height="20" viewBox="0 0 20 20" fill="none" xmlns="http://www.w3.org/2000/svg">
<path d="M1.66663 10L1.27619 9.68766L1.02631 10L1.27619 10.3124L1.66663 10ZM9.16663 10.5C9.44277 10.5 9.66663 10.2762 9.66663 10C9.66663 9.72387 9.44277 9.50001 9.16663 9.50001V10.5ZM4.60952 5.521L1.27619 9.68766L2.05706 10.3124L5.39039 6.14569L4.60952 5.521ZM1.27619 10.3124L4.60952 14.479L5.39039 13.8543L2.05706 9.68766L1.27619 10.3124ZM1.66663 10.5H9.16663V9.50001H1.66663V10.5Z" fill="white"/>
<path d="M8.86798 16.3335L8.50163 16.6738L8.86798 16.3335ZM8.74988 16.1941L9.14575 15.8887L8.74988 16.1941ZM17.396 16.9704L17.0522 16.6073L17.396 16.9704ZM17.1431 17.1846L16.8415 16.7858L17.1431 17.1846ZM17.1431 2.81537L16.8415 3.21415L17.1431 2.81537ZM17.396 3.02957L17.0522 3.39265L17.396 3.02957ZM8.86669 3.66786L9.23336 4.00779L8.86669 3.66786ZM8.75104 3.80438L9.14662 4.11018L8.75104 3.80438ZM17.8334 8.52395V11.476H18.8334V8.52395H17.8334ZM8.83337 6.7766V6.61397H7.83337V6.7766H8.83337ZM11.6501 16.7125C10.893 16.5864 10.368 16.4981 9.97189 16.3835C9.58769 16.2724 9.38109 16.1512 9.23432 15.9932L8.50163 16.6738C8.8189 17.0154 9.21695 17.2061 9.69404 17.3441C10.1593 17.4787 10.7522 17.5767 11.4857 17.6989L11.6501 16.7125ZM7.83337 13.3883C7.83337 14.1317 7.83258 14.7324 7.88882 15.2133C7.94651 15.7065 8.06925 16.1304 8.354 16.4995L9.14575 15.8887C9.01401 15.7179 8.92849 15.4942 8.88205 15.0972C8.83417 14.6878 8.83337 14.1556 8.83337 13.3883H7.83337ZM9.23432 15.9932C9.20322 15.9597 9.17367 15.9249 9.14575 15.8887L8.354 16.4995C8.40053 16.5598 8.44979 16.618 8.50163 16.6738L9.23432 15.9932ZM17.8334 11.476C17.8334 13.0259 17.8323 14.138 17.7206 14.976C17.6104 15.8022 17.4021 16.2761 17.0522 16.6073L17.7397 17.3335C18.3273 16.7772 18.5876 16.0395 18.7118 15.1082C18.8344 14.1887 18.8334 12.9974 18.8334 11.476H17.8334ZM11.4857 17.6989C12.9868 17.9491 14.1621 18.1461 15.0895 18.1763C16.0288 18.207 16.7994 18.0715 17.4447 17.5834L16.8415 16.7858C16.4572 17.0765 15.9555 17.2041 15.1221 17.1769C14.2769 17.1493 13.1793 16.9674 11.6501 16.7125L11.4857 17.6989ZM17.0522 16.6073C16.9853 16.6707 16.915 16.7303 16.8415 16.7858L17.4447 17.5834C17.5476 17.5056 17.6461 17.4222 17.7397 17.3335L17.0522 16.6073ZM11.6516 3.28719C13.1803 3.03239 14.2775 2.85059 15.1225 2.82305C15.9555 2.79589 16.4572 2.9235 16.8415 3.21415L17.4447 2.41659C16.7994 1.9285 16.029 1.79297 15.0899 1.82358C14.1627 1.8538 12.9879 2.05068 11.4872 2.30079L11.6516 3.28719ZM18.8334 8.52395C18.8334 7.00257 18.8344 5.81133 18.7118 4.8918C18.5876 3.96047 18.3273 3.22278 17.7397 2.6665L17.0522 3.39265C17.4021 3.72391 17.6104 4.1978 17.7206 5.02397C17.8323 5.86194 17.8334 6.97411 17.8334 8.52395H18.8334ZM16.8415 3.21415C16.915 3.26972 16.9853 3.32931 17.0522 3.39265L17.7397 2.6665C17.6461 2.57782 17.5476 2.49439 17.4447 2.41659L16.8415 3.21415ZM11.4872 2.30079C10.7528 2.42318 10.1593 2.5213 9.69352 2.6561C9.21586 2.79436 8.81743 2.98555 8.50002 3.32793L9.23336 4.00779C9.38023 3.84937 9.587 3.72798 9.97155 3.61668C10.368 3.50192 10.8936 3.41351 11.6516 3.28719L11.4872 2.30079ZM8.83337 6.61397C8.83337 5.84557 8.83417 5.31257 8.88219 4.90262C8.92876 4.50501 9.0145 4.2811 9.14662 4.11018L8.35545 3.49858C8.06991 3.86796 7.94682 4.29241 7.88898 4.7863C7.83258 5.26785 7.83337 5.8695 7.83337 6.61397H8.83337ZM8.50002 3.32793C8.44931 3.38263 8.40107 3.43957 8.35545 3.49858L9.14662 4.11018C9.17399 4.07477 9.20293 4.04061 9.23336 4.00779L8.50002 3.32793Z" fill="white"/>
</svg>
