<svg width="60" height="60" viewBox="0 0 61 61" fill="none" xmlns="http://www.w3.org/2000/svg">
<path d="M22.6066 30.807L21.3428 29.2569L22.6066 30.807ZM25 11C25 10.4477 25.4477 10 26 10V6C23.2386 6 21 8.23858 21 11H25ZM25 29.9995V11H21V29.9995H25ZM20 40.5C20 37.2163 21.505 34.2857 23.8704 32.3571L21.3428 29.2569C18.0857 31.9125 16 35.9635 16 40.5H20ZM30.5 51C24.701 51 20 46.299 20 40.5H16C16 48.5081 22.4919 55 30.5 55V51ZM41 40.5C41 46.299 36.299 51 30.5 51V55C38.5081 55 45 48.5081 45 40.5H41ZM37.1296 32.3571C39.495 34.2857 41 37.2163 41 40.5H45C45 35.9635 42.9143 31.9125 39.6572 29.2569L37.1296 32.3571ZM36 11V29.9995H40V11H36ZM35 10C35.5523 10 36 10.4477 36 11H40C40 8.23858 37.7614 6 35 6V10ZM26 10H35V6H26V10ZM39.6572 29.2569C39.8455 29.4104 40 29.6707 40 29.9995H36C36 30.9574 36.4538 31.8061 37.1296 32.3571L39.6572 29.2569ZM21 29.9995C21 29.6707 21.1545 29.4104 21.3428 29.2569L23.8704 32.3571C24.5462 31.8061 25 30.9574 25 29.9995H21Z" fill="#0284C7"/>
<ellipse cx="30.5" cy="40.5" rx="5" ry="5" fill="#0284C7"/>
</svg>
