<svg width="41" height="41" viewBox="0 0 41 41" fill="none" xmlns="http://www.w3.org/2000/svg">
<path fill-rule="evenodd" clip-rule="evenodd" d="M3.41666 11.4167C3.41666 7.64542 3.41666 5.7598 4.58823 4.58823C5.7598 3.41666 7.64542 3.41666 11.4167 3.41666H29.5833C33.3546 3.41666 35.2402 3.41666 36.4118 4.58823C37.5833 5.7598 37.5833 7.64542 37.5833 11.4167V29.5833C37.5833 33.3546 37.5833 35.2402 36.4118 36.4118C35.2402 37.5833 33.3546 37.5833 29.5833 37.5833H11.4167C7.64542 37.5833 5.7598 37.5833 4.58823 36.4118C3.41666 35.2402 3.41666 33.3546 3.41666 29.5833V11.4167ZM13.6514 28.6581C15.6162 27.1505 18.0235 26.3333 20.5 26.3333C22.9765 26.3333 25.3838 27.1505 27.3486 28.6581C29.3133 30.1657 30.7257 32.2795 31.3667 34.6716C31.5096 35.2051 31.193 35.7534 30.6595 35.8964C30.1261 36.0393 29.5777 35.7227 29.4348 35.1892C28.9078 33.2224 27.7465 31.4844 26.131 30.2448C24.5156 29.0052 22.5362 28.3333 20.5 28.3333C18.4638 28.3333 16.4844 29.0052 14.8689 30.2448C13.2535 31.4844 12.0922 33.2224 11.5652 35.1892C11.4222 35.7227 10.8739 36.0393 10.3404 35.8964C9.80697 35.7534 9.49038 35.2051 9.63332 34.6716C10.2743 32.2795 11.6867 30.1657 13.6514 28.6581ZM16.375 15.375C16.375 13.0968 18.2218 11.25 20.5 11.25C22.7782 11.25 24.625 13.0968 24.625 15.375C24.625 17.6532 22.7782 19.5 20.5 19.5C18.2218 19.5 16.375 17.6532 16.375 15.375ZM20.5 9.24999C17.1172 9.24999 14.375 11.9922 14.375 15.375C14.375 18.7577 17.1172 21.5 20.5 21.5C23.8827 21.5 26.625 18.7577 26.625 15.375C26.625 11.9922 23.8827 9.24999 20.5 9.24999Z" fill="#919699"/>
<rect x="3.91666" y="3.91666" width="33.1667" height="33.1667" rx="3.5" stroke="#919699"/>
</svg>
