<svg width="40" height="40" viewBox="0 0 40 40" fill="none" xmlns="http://www.w3.org/2000/svg">
<path fill-rule="evenodd" clip-rule="evenodd" d="M4.21205 5.87868C3.33337 6.75736 3.33337 8.17157 3.33337 11V29C3.33337 31.8284 3.33337 33.2426 4.21205 34.1213C5.09073 35 6.50495 35 9.33337 35H30.6667C33.4951 35 34.9093 35 35.788 34.1213C36.6667 33.2426 36.6667 31.8284 36.6667 29V28.3333H26.6667C25.7374 28.3333 25.2727 28.3333 24.8863 28.2565C23.2996 27.9408 22.0592 26.7005 21.7436 25.1137C21.6667 24.7273 21.6667 24.2626 21.6667 23.3333C21.6667 22.404 21.6667 21.9394 21.7436 21.553C22.0592 19.9662 23.2996 18.7258 24.8863 18.4102C25.2727 18.3333 25.7374 18.3333 26.6667 18.3333H36.6667V11C36.6667 8.17157 36.6667 6.75736 35.788 5.87868C34.9093 5 33.4951 5 30.6667 5H9.33337C6.50495 5 5.09073 5 4.21205 5.87868ZM11.6667 12.3333C11.1144 12.3333 10.6667 12.781 10.6667 13.3333C10.6667 13.8856 11.1144 14.3333 11.6667 14.3333H16.6667C17.219 14.3333 17.6667 13.8856 17.6667 13.3333C17.6667 12.781 17.219 12.3333 16.6667 12.3333H11.6667Z" fill="#0284C7"/>
<path d="M28.3333 23.3333H26.6666" stroke="#0284C7" stroke-width="2" stroke-linecap="round"/>
</svg>
