<?xml version="1.0" encoding="iso-8859-1"?>
<!-- Generator: Adobe Illustrator 19.0.0, SVG Export Plug-In . SVG Version: 6.00 Build 0)  -->
<svg version="1.1" id="Layer_1" xmlns="http://www.w3.org/2000/svg" xmlns:xlink="http://www.w3.org/1999/xlink" x="0px" y="0px"
	 viewBox="0 0 506 506" style="enable-background:new 0 0 506 506;" xml:space="preserve">
<circle style="fill:#84DBFF;" cx="253" cy="253" r="253"/>
<g>
	<path style="fill:#ACB3BA;" d="M406.5,327.7c-0.7,1.5-1.5,2.9-2.2,4.3C405.9,331,406.6,329.6,406.5,327.7z"/>
	<path style="fill:#ACB3BA;" d="M423.5,244.3c-0.1-2.3-0.3-4.6-0.5-7c-0.2-0.8-0.5-1.6-0.8-2.4c-2.3-4.9-7.7-8-8.3-14
		c0-0.4-0.5-0.8-0.7-1.2c-1.3-1.7-2.7-3.3-4-5c-1.3-1.6-2.9-4.9-3.6-4.7c-3.2,0.9-3.9-1.6-5.5-3.1c1.5,3.1,3,6,4.6,8.9
		c1.1,2.1,2.2,4.2,3.2,6.3c1,2,1.8,4,2.8,5.9c0.7,1.4,1.3,2.7,2.1,4c0.5,0.8,1.5,1.4,1.7,2.1C415.2,239.8,420,241.4,423.5,244.3z"/>
	<path style="fill:#ACB3BA;" d="M390.5,179c2.3,0.5,5.1,0.8,7.3,0c3-1.1,5.8-1.4,8.6-0.7c-1-2.1-2.1-4.2-3.2-6.3
		c-0.1,0-0.3,0.1-0.4,0.1c-0.4-0.6-1-1.1-1.4-1.8c-0.3-0.6-0.1-1.6-0.5-2c-1.9-1.7-5.9-1.1-7.5,1.1c-1.4,1.9-2.7,3.8-4,5.7
		C388.2,176.9,388.9,178.6,390.5,179z"/>
	<path style="fill:#ACB3BA;" d="M402,279.2c0.8-1.1,0.8-2.8,1.1-4.2c-1.1-0.1-2.7-0.6-3.1-0.1c-1.1,1.4-1.7,3.2-2.6,4.9
		c0.4,0.4,0.7,0.8,1.1,1.2C399.7,280.3,401.3,280.1,402,279.2z"/>
	<path style="fill:#ACB3BA;" d="M400.1,334.3c1.5,6.1-3.6,9-6.5,12.9c-3.8,5-9.1,7.1-15.5,6.6c-2.1-0.2-4.3,0.6-6.4,1
		c-3.7,0.7-5-1.1-5.4-4.8c-0.3-2.9-1.7-6.3-3.8-8.2c-3.3-3.1-4.2-7.1-4.5-10.9c-0.3-4.5-2.8-7.7-4.7-11.3
		c-2.5-4.6-2.3-11.1,1.2-15.1c1.8-2,1.9-3.8,1-6.3c-1.3-3.3-1.8-6.8-2.9-10.1c-0.4-1.3-1-2.9-2-3.5c-5.7-3.9-5.6-9.1-3.8-14.7
		c0.9-2.7-0.4-4.3-2.5-5.3c-0.9-0.4-2.3-0.3-3.4,0c-2.1,0.5-3.4,0.2-4.3-2.1c-1-2.5-4.8-3.3-8.6-1.7c-4.3,1.7-8.3,3.6-13.2,2.3
		c-1.5-0.4-3.5,0.3-5,1c-2.6,1.3-4.6,0.6-6.7-1.1c-1.3-1.1-2.9-1.9-4.1-3.2c-3.3-3.5-6.1-7.6-9.8-10.6c-3.1-2.4-2.7-5.8-4.1-8.5
		c2.5-4.7,3.4-9.4,0.8-14.4c-0.3-0.6-0.5-1.5-0.2-1.9c3.7-5.3,5.2-12.3,12.2-15.1c2.5-1,4.4-2.7,4.4-6.3c0-1.9,2.7-3.9,4.4-5.7
		c1.1-1.2,2.7-2.1,3.6-3.4c0.6-0.8,0.8-2.6,0.3-3.2c-0.8-0.9-2.3-1.3-3.6-1.7c-0.6-0.2-1.4,0-2,0c-1.5-3-1.6-5.7-0.4-8.7
		c0.5-1.4-0.3-3.3-0.7-5.9c2.7-0.1,5.4-0.2,8.2-0.2c1.5,0,3,0.2,4.5,0.2c2.2,0,4.9,1.3,5.7-2.5c0.6-3.1-1.2-5.4-4.6-6.9
		c-1.1-0.5-2.4-0.9-3.6-1.3c1.7-3.6,6.4,1.4,7.2-3.5c3,1.5,5.2,0,7.2-2.1c0.5-0.5,1.2-0.9,1.9-1.2c2.8-1.1,5.2-2.5,7.3-4.9
		c0.8-1,3.2-1.2,4.8-1.1c2.8,0.2,2.5-1.4,2-3.1c-1.4-4.5-1.4-4.5,4.7-6.2c-0.9,1.9-1.5,3.2-2,4.6c-0.2,0.6-0.4,1.6-0.2,1.8
		c1.2,0.8,2.7,2,3.8,1.8c4.7-0.9,9.6,0.8,14.3-1.4c2.2-1,5.3-0.2,7.5-0.2c0.6-2.5,0.5-4.2,1.4-5.4c0.5-0.7,2.3-0.6,3.5-0.6
		c1-0.1,2,0.1,3,0.2c-0.4-0.9-0.9-1.8-1.3-2.7c-0.1-0.3-0.3-0.6-1-1.8c0.2,0,0.5,0,0.7-0.1c-0.6-0.6-1.2-1.2-1.8-1.8
		c-0.6-0.2-1.2-0.5-1.8-1c-0.6-0.5-1-1.3-1.3-2.2c-1.5-1.6-3.1-3.1-4.7-4.6c-0.2,0.1-0.4,0.1-0.6,0.2c-1.6,1.3-3.5,2.6-4.5,4.3
		c-0.3,0.5,1.8,2.5,3,4.1c-0.1,0.2-0.4,1-0.9,1.1c-2.8,0.8-4.1,2.7-4.3,5.5c0,0.6-1,1.1-1.6,1.6c-0.1,0.1-0.5,0-0.7,0.1
		c-1.9,0.4-4.2,1.8-5.5,1.1c-1.5-0.8-2-3.4-3.1-5.1c-0.6-1.1-1.4-2.1-2.2-3.4c-1.9,0.9-3.7,2.3-5.6,2.5s-5.1-0.1-5.7-1.2
		c-2.6-5.1-2-7.2,1.5-8.8c2.8-1.2,5.9-1.9,8.5-3.5c3.7-2.3,7.2-5,10.8-7.6c-19-15-41.4-26.1-65.7-32c-6.3,1.6-12.6,3.3-18.4,7.4
		c2.9,0.8,5.3,1.5,7.7,2.2c0,0.3,0,0.5,0,0.8c-2.5,0-5,0-7.5,0c0,0.2,0,0.4,0,0.7c1.6,0.6,3.2,1.3,4.7,1.9c-0.1,0.3-0.2,0.6-0.3,0.9
		c-0.9,0.1-1.7,0.2-2.6,0.3c0,0.2-0.1,0.4-0.1,0.6c0.9,0.3,1.8,0.6,3.1,1.1c-2.5,1.2-4.8,2.2-7.3,3.4c0.5,1.6,1.1,3.4,2,6.3
		c-3.1-0.9-5.8-1.6-8.6-2.4c-0.3,0.6-0.7,1.4-1,2.1c1.7,0.2,3.6,0.4,6.4,0.8c-6.4,3.7-12.7,3.7-18.8,4.6c-1.8,0.3-3.5,1.3-5.3,1.9
		c-3,1-5.9,2.1-8.9,3c-2.5,0.7-5,1.2-7.6,1.8c0.2,0.3,0.5,0.6,0.7,0.9c-1.2,1.5-2.5,2.9-3.5,4.5c-0.8,1.3-1.3,2.8-1.9,4.2
		c-1.2,2.9-3.2,2.6-5.6,1.5c-1.5-0.7-3.2-1-4.8-1.4c-5.2-1.1-8.2-4.9-11.2-8.8c-0.6-0.8-1.5-1.5-1.9-2.3c-0.7-1.3-1.8-2.9-1.5-4
		s2.1-1.8,3.3-2.6c1.1-0.7,2.4-1.4,3.6-2.1c-0.2-0.3-0.3-0.7-0.5-1c-2.9,0.5-5.8,0.9-8.6,1.4c1.3-5.6,4.8-2.3,7.6-3
		c-2.8-3-6.1-2.7-10.3-1.3c1.2-1.8,1.7-2.6,2.5-3.8c-2.5-1.7-5-3.4-7.4-5.2c-3.4-2.5-7.2-2.5-11.1-2.6c-6.9,3.3-13.6,7.1-19.9,11.2
		c2.7,0.8,5.5,1.7,8.1,2.7c0.6,0.2,0.6,1.9,1.1,3.8c3.4,1.1,8.1,2.5,12.8,4c-3.7,6.8-8.3,2-12.7,0.6c-0.7,2.9,1,3.3,2.9,3.8
		c3,0.8,3.6,2.2,2.3,4.8c-2-0.4-4-0.9-6.9-1.5c2,1.2,3.1,2,4.3,2.7c-4.7-0.1-9.2-0.3-13.3-3c-2.9-1.9-6-3.1-9.7-2
		c-1.4,0.4-3,0.1-4.7-0.6c4.2-2.3,10.1-0.7,12.6-7c-1.5-0.7-3.3-2.1-5.3-2.5c-11.2,8.3-21.4,18-30.3,28.8c4.2,1.1,8.6,2.3,13.1,3.4
		c-0.5,3.6,1.8,6.2,5.1,8.2c4.4-1.6,4.4-1.6,2-7.2c2-1.6,5-2.8,5.5-4.7c0.4-1.6-2.1-3.9-3.4-6c4.4-1.1-0.4-5.1,1.6-7.8
		c6.2-0.7,12.4,0.4,18.4,4c1.8,6.7,4.1,7,12.3,0.3c2.2,3.2,3.9,6.8,6.5,9.4c1.8,1.8,4.7,2.8,7.3,3.6c6.1,1.8,7.9,5.7,4.5,11.3
		c2.1,0.6,4,1.2,5.8,1.8c0.8,1.1,1.6,2.3,2.3,3.5c0.3,0.5,0.2,1.2,0.1,1.8c-0.1,0.2-0.9,0.5-1.1,0.4c-4-2.8-8.6-1.2-13.2-2.2
		c1.8-2.7,3.6-5.4,6.1-9.1c-2.4,0.8-3.9,1.3-5.4,1.7c-2.4,0.6-4.8,1.7-7.2,1.6c-5.6-0.2-11-0.5-15.5,3.5c3.2-0.4,6.6-0.8,10.3-1.3
		c-0.7,2.1-1.2,3.2-1.4,4.3c-0.1,0.6,0.1,1.8,0.4,1.9c2.3,0.8,4.7,1.5,7.2,1.9c0.5,0.1,1.3-1.5,2.1-2.5c0.6,0.8,1,1.5,1.5,2.2
		c-4,1.8-7.9,3.6-11.9,5.2c-0.5,0.2-1.3-0.4-2-0.6c0.2-0.6,0.3-1.3,0.7-1.7c0.5-0.5,1.3-0.9,1.7-2c-4,1.5-8.1,2.8-11.9,4.6
		c-1,0.5-1.2,2.6-2,4.5c-0.3,0.1-1.4,0.5-2.5,0.7c-3.8,0.7-5.4,3.6-7.1,6.6c-1.2,2-2.4,3.8-1.8,6.3c0.1,0.6-1.4,1.8-2.4,2.5
		c-2.7,1.8-5.5,3.2-8.1,5.1c-2.1,1.5-3.1,3.7-1.8,6.4c0.8,1.8,1.8,3.6,2.2,5.4c0.3,1.6-0.1,3.3-0.2,5c-0.6,0.1-1.1,0.2-1.7,0.3
		c-1.3-2.7-2.7-5.2-3.8-8c-0.9-2.2-1.6-3.6-4.6-3.4c-2.6,0.2-5.2-0.7-7.9-1.1c-0.6-0.1-1.5-0.2-1.7,0.1c-3,4.5-6.9,1.3-10.4,1.4
		c-4.7,0-8.8,4.2-8.7,8.8c0,2.2-1.2,4.5-0.8,6.5c0.7,3.2,2.1,6.5,3.9,9.2c0.8,1.2,3.4,1.5,5.1,1.5c3.7,0.1,6.7-0.6,7.7-5.3
		c0.3-1.3,4.8-1.6,8.2-2.6c-1.7,5.4-3.1,9.4-4.5,13.9c2.6,0,4.9,0,7.3,0c4.5,0,5.4,1.2,4.7,5.6c-0.5,3.5-1.5,7.3,2.7,9.4
		c1.2,0.6,3,1.1,4,0.6c3.3-1.7,5.7-0.8,8.5,2.2c2.1-6.3,7.9-7.2,13.1-9.9c-0.4,1.3-0.7,2.2-1.2,4c1.9-1.1,3.1-1.7,4.1-2.2
		c3.6,1.1,7.3,2.4,11.1,3.6c0.3,0.1,0.8,0.1,1-0.1c4.3-2.8,6.3,1.4,9.4,2.8c4.7,2.2,7,8.2,13.9,7.4c3.7-0.5,7.1,2.3,9.3,6.5
		c1.9,3.7,1.2,6.1-1.9,8.7c0.3,0.2,0.6,0.3,0.9,0.5c0.6-0.2,1.2-0.5,1.8-0.7c1.1-0.4,2.6-1.4,3.2-1c3.3,2.4,8.2,0.7,11.1,4.9
		c1,1.4,4.9,0.7,7.5,1.2c1.7,0.3,3.5,0.9,5.1,1.7c2.3,1.1,4.6,2.3,6.8,3.6c0.6,0.4,1.2,1,1.5,1.7c1.2,3.1,1,6.1-1.4,8.7
		s-4.9,5.2-7,8c-0.8,1.1-0.9,2.8-0.8,4.3c0.4,6-2,11.2-5.1,16.1c-0.7,1.1-2.6,2-4,2.1c-4.6,0.5-8.3,2.5-11.6,5.5
		c-0.6,0.6-1.6,1.7-1.4,2.2c1.6,4.2-1.4,7.5-3.8,8.8c-3.8,2-4.3,5.8-6.8,8.5c-2.7,2.9-5.3,3.2-8.7,2.1c-1-0.3-2-0.5-2.8-0.7
		c0.7,1.2,1.5,2.4,2,3.6c1.3,3.1,0.3,5.3-2.9,6.1c-2.7,0.6-5.4,0.9-8.2,1.3c-0.8,5.3-0.9,5.3-6.1,4.3c-0.4,2.5-0.6,5-1.2,7.5
		c-0.2,0.8-1.2,1.5-2,2.1c-1,0.8-2.1,1.6-3.1,2.4c1,0.8,2.1,1.5,3.1,2.3c0.3,0.2,0.6,0.4,1.1,0.7c-2,2.1-3.5,4.8-5.8,5.8
		c-4.2,1.8-2,4.5-1,6.1c1.4,2.1,3.9,3.5,5.8,5.1c-0.7,0.3-1.3,0.5-1.9,0.6c24.6,13.7,52.8,21.5,82.9,21.5
		c65.7,0,122.8-37.2,151.3-91.6c-0.5,0.3-1.1,0.7-1.9,1C401.7,333.4,401,333.8,400.1,334.3z"/>
	<path style="fill:#ACB3BA;" d="M376.9,182.5c1.1,1.2,2.3,2.6,3.4,3.9c-1.1,1.3-2.2,2.5-3.7,4.1c-0.8-0.7-2.3-1.3-2.4-2.2
		c-0.5-4-6-5.3-5-10c0.1-0.4-1.1-1.1-1.7-1.5c-3.9-2.3-7.8-4.7-11.7-6.9c-0.6-0.3-2.1-0.2-2.3,0.2c-0.4,0.6-0.4,2.1,0.1,2.5
		c2.3,1.9,4.8,3.6,7.3,5.3c2,1.3,4.1,2.5,6.1,3.7c-0.1,0.1-0.2,0.3-0.2,0.4c-1.1-0.2-2.2-0.3-3.5-0.5c1,3.8,0.2,5.1-3.1,5.4
		c2.2-1.6,2.2-3.1-0.1-4.7c-1.1-0.8-2.3-1.5-3.4-2.3c-2.8-2-5.5-4.3-8.4-6.1c-1.1-0.7-3.1-1.1-4.2-0.6c-2.9,1.1-5.5,2.6-8.8,1.6
		c-0.7-0.2-2.8,1.1-2.8,1.5c0.3,2.8-2,2.7-3.4,3.6c-1.6,1.1-3.6,2.2-4.2,3.8c-1.9,5.1-2.6,5.9-8,6.4c-1.4,0.1-2.8,0.9-4.2,1.4
		c0.1,0.6,0.1,1.1,0.2,1.7c2.8,0.1,6.2,1.3,8.4,0.2c7.1-3.8,14.6-3.6,22.1-3.7c2.2,0,4.4-0.2,7-0.3c-0.6,2.9-1,5.1-1.5,8.1
		c1.5,0.4,4,1,6.4,1.7c1.2,0.3,2.5,0.5,3.6,1.1c2.9,1.4,5.7,3,8.6,4.4c1.7,0.9,2.9,0.3,3.3-1.7c0.6-3.3,3.1-4.7,6.1-3.5
		c2,0.8,3.9,1.9,6,2.3c3.4,0.7,6.9,1,10.4,1.3c2,0.2,4,0,6-0.2c1.7-0.2,4.4-0.1,4.9-1.1c1.9-3.4,3.1-7.1,4.6-10.7
		c-0.4-0.3-0.7-0.7-1.1-1c-1.8,0.5-3.6,1.3-5.3,1.3c-1.8,0-3.6-1-5.5-1.4c-0.4-0.1-0.9,0.6-1.4,0.8c-0.6,0.2-1.3,0.6-1.9,0.5
		c-3.3-0.4-7.7-4.7-8.1-7.9c-0.3-2.7-2.2-3.7-4.6-2.5C379.4,181.2,378.4,181.7,376.9,182.5z"/>
	<path style="fill:#ACB3BA;" d="M405,322.7c0.2,0.9,0.7,1.7,1,2.6s0.4,1.7,0.5,2.4c1.9-3.9,3.7-8,5.3-12.1c-2.3,1.5-4.4,3.4-6.6,5.2
		C404.8,321.2,404.9,322.1,405,322.7z"/>
	<path style="fill:#ACB3BA;" d="M272.4,84.6c-2.7,0.2-5.4,0.5-8.9,0.8c3.4,1.7,6.9-2.7,9,1.4c5-0.3,10.1-0.6,15.2-1
		c-8.5-1.8-17.3-2.9-26.2-3.3c3.6,0.4,7.3,0.8,10.9,1.1C272.4,84,272.4,84.3,272.4,84.6z"/>
	<path style="fill:#ACB3BA;" d="M113.3,166.9c1.7-0.2,3.4-0.4,5.1-0.7c0.7-0.1,1.7-0.8,1.8-0.7c2.5,3.4,5.8,0.6,8.7,1.5
		C126.6,161.1,121.5,160.9,113.3,166.9z"/>
	<path style="fill:#ACB3BA;" d="M130,168.9c1.5,2.1,2.9,4.1,4.7,6.6c0.8-1.9,1.3-3.2,1.8-4.5c1.1,0.2,2,0.3,3.2,0.5
		C138,168.6,132.2,167.3,130,168.9z"/>
	<path style="fill:#ACB3BA;" d="M154.3,312.6c-5.8-2.1-6.9-7.7-9.4-12.1c-2.2-3.9-3.7-8-7-11.3c-2.4-2.4-1.1-5.5,2.1-7.3
		c-2.8-2.5-2.4-6.3,0.5-9.1c6.1-5.9,7-8.2,2.9-16.8c-0.3-0.7-1.8-1.7-1.9-1.6c-1.2,1-2.2,2.1-3.4,3.5c-3.4-1.8-7.3-3.6-10.9-5.9
		c-1-0.6-1.2-2.5-1.9-3.7c-2.1-3.7-6.2-3.9-9.6-5.4c-2.2-0.9-4.3-2-6.2-3.4c-1.9-1.4-3.5-2.3-6-1.2c-1.3,0.6-3.2,0.3-4.6-0.2
		c-5.1-2.2-10.2-4.5-15.1-7.1c-0.9,7.3-1.5,14.7-1.5,22.2c0,56.3,27.3,106.3,69.4,137.4c-0.6-1.3-1-2.6,0.8-4
		c0.5-0.4-0.4-2.8-0.7-4.8c0.3,0,1.4,0,2.6,0c0.8-3.4,1.6-6.8,2.4-10.2c-0.3-0.1-0.7-0.3-1-0.4c-0.7,1.3-1.4,2.7-2,4
		c-0.2,0-0.5-0.1-0.7-0.1c0.4-2.4,0.8-4.7,1.2-7.1c0.1-0.6,0.7-1.2,0.6-1.6c-1.5-4.5,2-7.5,3-11.2c0.9-3.7,1-7.7,1.6-11.5
		c0.8-5.3,1.8-10.6,2.5-15.9C162.9,319,162.7,315.7,154.3,312.6z"/>
	<path style="fill:#ACB3BA;" d="M128.3,169.1c-5.8,0-8.4,4.8-5.3,9.6c0.7-0.8,2-1.7,1.9-2.2C124.2,173.2,125,170.8,128.3,169.1z"/>
	<path style="fill:#ACB3BA;" d="M417,297.8c0.1,0.4,0.2,0.9,0.4,1.3c2.1-7.4,3.7-15,4.7-22.8c-2.7,2.8-5,6-6.5,9.7
		C414,290,415.8,293.9,417,297.8z"/>
	<path style="fill:#ACB3BA;" d="M133,179.2c2.7-0.8,5.4-1.6,8.2-2.4c-0.1-0.4-0.2-0.8-0.3-1.2c-2.7,0.8-5.5,1.6-8.2,2.4
		C132.8,178.4,132.9,178.8,133,179.2z"/>
</g>
<g>
	<path style="fill:#FFFFFF;" d="M422.1,276.3c1-7.6,1.6-15.4,1.6-23.3c0-2.9-0.1-5.8-0.2-8.7c-3.5-2.9-8.3-4.5-9.2-10
		c-0.1-0.8-1.2-1.4-1.7-2.1c-0.8-1.3-1.4-2.6-2.1-4c-0.9-2-1.8-4-2.8-5.9c-1-2.1-2.1-4.2-3.2-6.3c-1.5-2.9-3.1-5.8-4.6-8.9
		c1.5,1.5,2.3,4,5.5,3.1c0.7-0.2,2.4,3.1,3.6,4.7c1.3,1.7,2.7,3.3,4,5c0.3,0.4,0.7,0.7,0.7,1.2c0.6,6,6,9.1,8.3,14
		c0.4,0.8,0.6,1.6,0.8,2.4c-1.9-21-7.6-41-16.5-59.1c-2.9-0.7-5.6-0.4-8.6,0.7c-2.1,0.8-4.9,0.5-7.3,0c-1.6-0.4-2.4-2.1-1.1-3.9
		c1.3-1.9,2.6-3.8,4-5.7c1.6-2.2,5.6-2.8,7.5-1.1c0.4,0.4,0.2,1.4,0.5,2c0.3,0.7,0.9,1.2,1.4,1.8c0.1,0,0.3-0.1,0.4-0.1
		c-6.7-12.4-14.9-23.8-24.3-34.1c-0.2,0-0.5,0-0.7,0.1c0.7,1.2,0.8,1.5,1,1.8c0.4,0.9,0.9,1.8,1.3,2.7c-1-0.1-2-0.2-3-0.2
		c-1.2,0.1-3-0.1-3.5,0.6c-0.8,1.1-0.8,2.9-1.4,5.4c-2.2,0-5.3-0.9-7.5,0.2c-4.7,2.2-9.6,0.5-14.3,1.4c-1.1,0.2-2.6-1-3.8-1.8
		c-0.2-0.1,0-1.2,0.2-1.8c0.5-1.4,1.2-2.7,2-4.6c-6.1,1.7-6.1,1.7-4.7,6.2c0.5,1.7,0.8,3.2-2,3.1c-1.6-0.1-4,0.1-4.8,1.1
		c-2,2.4-4.4,3.9-7.3,4.9c-0.7,0.3-1.4,0.7-1.9,1.2c-2,2-4.2,3.5-7.2,2.1c-0.8,4.9-5.5-0.1-7.2,3.5c1.2,0.4,2.4,0.7,3.6,1.3
		c3.4,1.6,5.2,3.8,4.6,6.9c-0.7,3.9-3.4,2.5-5.7,2.5c-1.5,0-3-0.2-4.5-0.2c-2.7,0-5.5,0.2-8.2,0.2c0.4,2.6,1.2,4.5,0.7,5.9
		c-1.2,3-1.1,5.8,0.4,8.7c0.6,0,1.3-0.2,2,0c1.3,0.4,2.8,0.8,3.6,1.7c0.5,0.6,0.2,2.4-0.3,3.2c-0.9,1.3-2.5,2.2-3.6,3.4
		c-1.6,1.8-4.3,3.7-4.4,5.7c-0.1,3.6-1.9,5.3-4.4,6.3c-7,2.8-8.4,9.8-12.2,15.1c-0.3,0.4-0.1,1.4,0.2,1.9c2.5,5,1.6,9.7-0.8,14.4
		c1.4,2.7,1,6.1,4.1,8.5c3.7,2.9,6.5,7.1,9.8,10.6c1.2,1.2,2.8,2.1,4.1,3.2c2,1.7,4.1,2.4,6.7,1.1c1.5-0.7,3.5-1.4,5-1
		c4.9,1.3,8.9-0.6,13.2-2.3c3.9-1.6,7.6-0.9,8.6,1.7c0.9,2.3,2.2,2.6,4.3,2.1c1.1-0.3,2.4-0.5,3.4,0c2.1,1,3.4,2.6,2.5,5.3
		c-1.9,5.7-1.9,10.9,3.8,14.7c1,0.7,1.6,2.3,2,3.5c1,3.4,1.6,6.9,2.9,10.1c1,2.5,0.8,4.2-1,6.3c-3.5,4-3.7,10.5-1.2,15.1
		c1.9,3.6,4.4,6.8,4.7,11.3c0.3,3.8,1.2,7.8,4.5,10.9c2.1,2,3.5,5.3,3.8,8.2c0.4,3.7,1.7,5.5,5.4,4.8c2.1-0.4,4.3-1.1,6.4-1
		c6.4,0.5,11.7-1.7,15.5-6.6c2.9-3.8,8-6.8,6.5-12.9c0.8-0.5,1.5-0.9,2.3-1.2c0.7-0.3,1.3-0.6,1.9-1c0.7-1.4,1.5-2.9,2.2-4.3
		c-0.1-0.7-0.2-1.5-0.5-2.4s-0.8-1.7-1-2.6c-0.1-0.6-0.2-1.6,0.2-1.8c2.2-1.8,4.3-3.7,6.6-5.2c2.1-5.4,4-10.9,5.6-16.6
		c-0.1-0.4-0.2-0.9-0.4-1.3c-1.1-3.8-2.9-7.8-1.4-11.7C417.1,282.4,419.4,279.1,422.1,276.3z M393,202.9c-3.5-0.3-7-0.6-10.4-1.3
		c-2.1-0.4-4-1.5-6-2.3c-3-1.2-5.5,0.2-6.1,3.5c-0.4,2-1.5,2.5-3.3,1.7c-2.9-1.4-5.7-3-8.6-4.4c-1.1-0.5-2.4-0.8-3.6-1.1
		c-2.5-0.7-4.9-1.3-6.4-1.7c0.6-3,1-5.2,1.5-8.1c-2.5,0.1-4.7,0.3-7,0.3c-7.6,0.1-15,0-22.1,3.7c-2.1,1.1-5.6-0.1-8.4-0.2
		c-0.1-0.6-0.1-1.1-0.2-1.7c1.4-0.5,2.7-1.2,4.2-1.4c5.4-0.6,6.2-1.3,8-6.4c0.6-1.6,2.7-2.7,4.2-3.8c1.4-1,3.7-0.9,3.4-3.6
		c0-0.4,2-1.7,2.8-1.5c3.3,1,6-0.5,8.8-1.6c1.2-0.5,3.1-0.1,4.2,0.6c2.9,1.8,5.6,4,8.4,6.1c1.1,0.8,2.3,1.5,3.4,2.3
		c2.3,1.6,2.3,3.1,0.1,4.7c3.3-0.3,4.1-1.6,3.1-5.4c1.3,0.2,2.4,0.4,3.5,0.5c0.1-0.1,0.2-0.3,0.2-0.4c-2-1.2-4.1-2.4-6.1-3.7
		c-2.5-1.7-5-3.4-7.3-5.3c-0.4-0.4-0.4-1.8-0.1-2.5c0.2-0.4,1.7-0.5,2.3-0.2c4,2.2,7.8,4.5,11.7,6.9c0.7,0.4,1.8,1.1,1.7,1.5
		c-0.9,4.6,4.5,6,5,10c0.1,0.8,1.6,1.5,2.4,2.2c1.4-1.6,2.6-2.9,3.7-4.1c-1.1-1.3-2.3-2.7-3.4-3.9c1.4-0.7,2.5-1.3,3.5-1.8
		c2.4-1.2,4.3-0.2,4.6,2.5c0.4,3.2,4.8,7.5,8.1,7.9c0.6,0.1,1.3-0.2,1.9-0.5c0.5-0.2,1-0.9,1.4-0.8c1.8,0.4,3.6,1.3,5.5,1.4
		c1.8,0,3.5-0.8,5.3-1.3c0.4,0.3,0.7,0.7,1.1,1c-1.5,3.6-2.6,7.4-4.6,10.7c-0.6,1-3.2,0.9-4.9,1.1C397,202.9,394.9,203,393,202.9z
		 M402,279.2c-0.7,0.9-2.3,1.2-3.5,1.7c-0.4-0.4-0.7-0.8-1.1-1.2c0.8-1.7,1.4-3.5,2.6-4.9c0.4-0.5,2,0.1,3.1,0.1
		C402.8,276.4,402.8,278.1,402,279.2z"/>
	<path style="fill:#FFFFFF;" d="M343.6,140.1c1.9-0.2,3.7-1.6,5.6-2.5c0.9,1.3,1.6,2.3,2.2,3.4c1,1.8,1.6,4.3,3.1,5.1
		c1.3,0.7,3.6-0.7,5.5-1.1c0.2-0.1,0.5,0.1,0.7-0.1c0.6-0.5,1.6-1,1.6-1.6c0.2-2.9,1.4-4.7,4.3-5.5c0.5-0.1,0.8-1,0.9-1.1
		c-1.2-1.6-3.3-3.5-3-4.1c1-1.7,2.9-3,4.5-4.3c0.2-0.1,0.4-0.1,0.6-0.2c-3.4-3.2-7-6.3-10.7-9.2c-3.6,2.6-7.1,5.3-10.8,7.6
		c-2.6,1.6-5.7,2.3-8.5,3.5c-3.5,1.6-4.1,3.7-1.5,8.8C338.5,140.1,341.7,140.4,343.6,140.1z"/>
	<path style="fill:#FFFFFF;" d="M241.9,286.8c-2.2-1.3-4.5-2.5-6.8-3.6c-1.6-0.7-3.4-1.3-5.1-1.7c-2.5-0.5-6.5,0.2-7.5-1.2
		c-2.9-4.2-7.8-2.5-11.1-4.9c-0.5-0.4-2.1,0.6-3.2,1c-0.6,0.2-1.2,0.4-1.8,0.7c-0.3-0.2-0.6-0.3-0.9-0.5c3.1-2.6,3.8-5,1.9-8.7
		c-2.1-4.2-5.5-7-9.3-6.5c-6.9,0.9-9.1-5.2-13.9-7.4c-3.1-1.4-5.1-5.7-9.4-2.8c-0.3,0.2-0.7,0.2-1,0.1c-3.8-1.2-7.6-2.4-11.1-3.6
		c-1,0.5-2.2,1.2-4.1,2.2c0.6-1.8,0.8-2.7,1.2-4c-5.2,2.7-11,3.7-13.1,9.9c-2.7-3-5.2-3.9-8.5-2.2c-1,0.5-2.8,0-4-0.6
		c-4.2-2.1-3.2-5.9-2.7-9.4c0.6-4.4-0.2-5.5-4.7-5.6c-2.3,0-4.7,0-7.3,0c1.5-4.5,2.8-8.5,4.5-13.9c-3.4,1-7.9,1.3-8.2,2.6
		c-1,4.7-4.1,5.4-7.7,5.3c-1.8,0-4.4-0.3-5.1-1.5c-1.8-2.8-3.1-6-3.9-9.2c-0.5-2,0.8-4.3,0.8-6.5c0-4.7,4-8.8,8.7-8.8
		c3.5,0,7.4,3.1,10.4-1.4c0.2-0.3,1.1-0.2,1.7-0.1c2.6,0.4,5.3,1.3,7.9,1.1c2.9-0.3,3.7,1.2,4.6,3.4c1.1,2.7,2.5,5.3,3.8,8
		c0.6-0.1,1.1-0.2,1.7-0.3c0.1-1.7,0.5-3.4,0.2-5c-0.4-1.9-1.3-3.7-2.2-5.4c-1.3-2.7-0.3-4.9,1.8-6.4c2.6-1.9,5.4-3.3,8.1-5.1
		c1-0.6,2.5-1.8,2.4-2.5c-0.6-2.6,0.7-4.3,1.8-6.3c1.7-3,3.3-5.9,7.1-6.6c1.1-0.2,2.2-0.6,2.5-0.7c0.8-1.9,1-4.1,2-4.5
		c3.8-1.8,7.9-3.1,11.9-4.6c-0.4,1.2-1.1,1.5-1.7,2c-0.4,0.4-0.5,1.1-0.7,1.7c0.7,0.2,1.5,0.8,2,0.6c4-1.7,7.9-3.5,11.9-5.2
		c-0.5-0.7-1-1.4-1.5-2.2c-0.8,1-1.6,2.5-2.1,2.5c-2.4-0.4-4.8-1.1-7.2-1.9c-0.3-0.1-0.5-1.3-0.4-1.9c0.2-1.1,0.7-2.2,1.4-4.3
		c-3.8,0.5-7.1,0.9-10.3,1.3c4.5-4,9.9-3.7,15.5-3.5c2.4,0.1,4.8-1,7.2-1.6c1.5-0.4,2.9-0.9,5.4-1.7c-2.4,3.7-4.2,6.3-6.1,9.1
		c4.6,0.9,9.3-0.7,13.2,2.2c0.2,0.1,1.1-0.2,1.1-0.4c0.1-0.6,0.2-1.3-0.1-1.8c-0.7-1.2-1.6-2.4-2.3-3.5c-1.7-0.5-3.7-1.1-5.8-1.8
		c3.4-5.6,1.6-9.4-4.5-11.3c-2.6-0.8-5.5-1.7-7.3-3.6c-2.6-2.7-4.4-6.2-6.5-9.4c-8.2,6.7-10.5,6.4-12.3-0.3c-6-3.5-12.2-4.7-18.4-4
		c-2,2.7,2.9,6.6-1.6,7.8c1.3,2.1,3.8,4.5,3.4,6c-0.5,1.9-3.5,3.1-5.5,4.7c2.4,5.5,2.4,5.5-2,7.2c-3.4-2-5.7-4.6-5.1-8.2
		c-4.5-1.2-8.9-2.3-13.1-3.4c-19.8,24.1-33,53.7-37.3,86.1c4.9,2.6,10,4.9,15.1,7.1c1.4,0.6,3.3,0.8,4.6,0.2c2.5-1.1,4.1-0.2,6,1.2
		s4,2.5,6.2,3.4c3.4,1.5,7.5,1.7,9.6,5.4c0.7,1.2,0.9,3.1,1.9,3.7c3.7,2.3,7.6,4.1,10.9,5.9c1.2-1.3,2.2-2.5,3.4-3.5
		c0.2-0.1,1.6,0.8,1.9,1.6c4.1,8.6,3.2,10.9-2.9,16.8c-2.9,2.8-3.3,6.7-0.5,9.1c-3.2,1.7-4.5,4.8-2.1,7.3c3.3,3.3,4.8,7.4,7,11.3
		c2.5,4.4,3.6,9.9,9.4,12.1c8.4,3.1,8.6,6.4,7.5,15c-0.7,5.3-1.7,10.6-2.5,15.9c-0.6,3.8-0.6,7.8-1.6,11.5c-0.9,3.7-4.5,6.8-3,11.2
		c0.1,0.4-0.5,1-0.6,1.6c-0.4,2.3-0.8,4.7-1.2,7.1c0.2,0,0.5,0.1,0.7,0.1c0.7-1.3,1.4-2.7,2-4c0.3,0.1,0.7,0.3,1,0.4
		c-0.8,3.4-1.6,6.8-2.4,10.2c-1.2,0-2.3,0-2.6,0c0.3,2,1.2,4.4,0.7,4.8c-1.9,1.3-1.4,2.7-0.8,4c5.8,4.3,12,8.3,18.4,11.8
		c0.6-0.2,1.2-0.4,1.9-0.6c-1.8-1.5-4.4-2.9-5.8-5.1c-1.1-1.6-3.2-4.3,1-6.1c2.3-1,3.8-3.8,5.8-5.8c-0.6-0.4-0.9-0.5-1.1-0.7
		c-1-0.8-2.1-1.5-3.1-2.3c1-0.8,2.1-1.6,3.1-2.4c0.7-0.6,1.8-1.3,2-2.1c0.6-2.4,0.8-5,1.2-7.5c5.2,1,5.2,1,6.1-4.3
		c2.8-0.4,5.5-0.7,8.2-1.3c3.2-0.8,4.2-3,2.9-6.1c-0.5-1.2-1.3-2.4-2-3.6c0.9,0.2,1.9,0.4,2.8,0.7c3.3,1.1,6,0.7,8.7-2.1
		c2.4-2.6,2.9-6.5,6.8-8.5c2.4-1.2,5.4-4.6,3.8-8.8c-0.2-0.5,0.7-1.6,1.4-2.2c3.3-3,7-5.1,11.6-5.5c1.4-0.1,3.3-1,4-2.1
		c3.1-4.9,5.5-10,5.1-16.1c-0.1-1.4,0-3.2,0.8-4.3c2.1-2.8,4.6-5.4,7-8s2.6-5.6,1.4-8.7C243.1,287.9,242.5,287.2,241.9,286.8z
		 M124.9,176.5c0.1,0.6-1.2,1.4-1.9,2.2c-3.1-4.8-0.5-9.7,5.3-9.6C125,170.8,124.2,173.2,124.9,176.5z M141.2,176.8
		c-2.7,0.8-5.4,1.6-8.2,2.4c-0.1-0.4-0.2-0.8-0.3-1.3c2.7-0.8,5.5-1.6,8.2-2.4C141,176,141.1,176.4,141.2,176.8z M139.7,171.6
		c-1.2-0.2-2.1-0.3-3.2-0.5c-0.5,1.2-1,2.5-1.8,4.5c-1.8-2.5-3.3-4.6-4.7-6.6C132.2,167.3,138,168.6,139.7,171.6z M129,167.1
		c-3-0.8-6.2,1.9-8.7-1.5c-0.1-0.1-1.2,0.5-1.8,0.7c-1.7,0.3-3.4,0.5-5.1,0.7C121.5,160.9,126.6,161.1,129,167.1z"/>
	<path style="fill:#FFFFFF;" d="M144,125.4c1.7,0.6,3.3,1,4.7,0.6c3.7-1.1,6.8,0.1,9.7,2c4,2.6,8.6,2.9,13.3,3
		c-1.1-0.7-2.3-1.4-4.3-2.7c3,0.7,5,1.1,6.9,1.5c1.3-2.6,0.7-4-2.3-4.8c-1.9-0.5-3.6-0.8-2.9-3.8c4.4,1.3,9,6.2,12.7-0.6
		c-4.7-1.5-9.4-3-12.8-4c-0.5-1.9-0.6-3.6-1.1-3.8c-2.7-1-5.4-1.9-8.1-2.7c-2.9,1.9-5.7,3.8-8.5,5.9c2,0.4,3.8,1.8,5.3,2.5
		C154.1,124.8,148.2,123.1,144,125.4z"/>
	<path style="fill:#FFFFFF;" d="M282.3,97.4c0-0.3,0-0.5,0-0.8c-2.4-0.7-4.8-1.4-7.7-2.2c5.8-4.1,12.1-5.8,18.4-7.4
		c-1.8-0.4-3.5-0.9-5.3-1.2c-5.1,0.3-10.2,0.6-15.2,1c-2.1-4.1-5.6,0.3-9-1.4c3.5-0.3,6.2-0.5,8.9-0.8c0-0.3,0-0.7,0-1
		c-3.6-0.3-7.3-0.7-10.9-1.1c-2.8-0.1-5.6-0.2-8.5-0.2c-26.2,0-51,5.9-73.2,16.5c3.8,0.1,7.7,0.1,11.1,2.6c2.4,1.8,4.9,3.5,7.4,5.2
		c-0.8,1.2-1.3,2-2.5,3.8c4.2-1.4,7.6-1.7,10.3,1.3c-2.8,0.7-6.3-2.6-7.6,3c2.9-0.5,5.8-0.9,8.6-1.4c0.2,0.3,0.3,0.7,0.5,1
		c-1.2,0.7-2.4,1.3-3.6,2.1c-1.2,0.8-3,1.5-3.3,2.6s0.8,2.7,1.5,4c0.5,0.9,1.3,1.5,1.9,2.3c3,3.8,6.1,7.6,11.2,8.8
		c1.6,0.4,3.3,0.7,4.8,1.4c2.4,1.1,4.3,1.4,5.6-1.5c0.6-1.4,1.1-2.9,1.9-4.2c1-1.6,2.3-3,3.5-4.5c-0.2-0.3-0.5-0.6-0.7-0.9
		c2.5-0.6,5.1-1.1,7.6-1.8c3-0.9,6-1.9,8.9-3c1.8-0.6,3.5-1.6,5.3-1.9c6.1-0.9,12.4-0.9,18.8-4.6c-2.8-0.3-4.7-0.6-6.4-0.8
		c0.4-0.7,0.7-1.5,1-2.1c2.8,0.8,5.4,1.5,8.6,2.4c-0.9-2.8-1.5-4.7-2-6.3c2.6-1.2,4.8-2.2,7.3-3.4c-1.4-0.5-2.3-0.8-3.1-1.1
		c0-0.2,0.1-0.4,0.1-0.6c0.9-0.1,1.7-0.2,2.6-0.3c0.1-0.3,0.2-0.6,0.3-0.9c-1.6-0.6-3.2-1.3-4.7-1.9c0-0.2,0-0.4,0-0.7
		C277.3,97.4,279.8,97.4,282.3,97.4z"/>
	<path style="fill:#FFFFFF;" d="M199.4,98C199.4,98.1,199.5,98.1,199.4,98C199.2,97.5,199.1,97.3,199.4,98z"/>
</g>
<path style="fill:#F1543F;" d="M223.1,182.8c0,23-43.6,82.5-43.6,82.5s-43.6-59.6-43.6-82.5s19.5-41.6,43.6-41.6
	S223.1,159.9,223.1,182.8z"/>
<circle style="fill:#FFFFFF;" cx="179.5" cy="182.1" r="21.2"/>
<path style="fill:#F1543F;" d="M344.9,128.9c0,10-19,36.1-19,36.1s-19-26-19-36.1c0-10,8.5-18.2,19-18.2S344.9,118.8,344.9,128.9z"
	/>
<circle style="fill:#FFFFFF;" cx="325.8" cy="128.6" r="9.3"/>
<path style="fill:#F1543F;" d="M374.9,204c0,7.6-14.4,27.3-14.4,27.3s-14.4-19.7-14.4-27.3s6.5-13.8,14.4-13.8
	S374.9,196.4,374.9,204z"/>
<circle style="fill:#FFFFFF;" cx="360.5" cy="203.8" r="7"/>
<path style="fill:#F1543F;" d="M192.6,333.9c0,5.6-10.7,20.2-10.7,20.2s-10.7-14.6-10.7-20.2s4.8-10.2,10.7-10.2
	C187.8,323.7,192.6,328.3,192.6,333.9z"/>
<circle style="fill:#FFFFFF;" cx="181.9" cy="333.7" r="5.2"/>
<path style="fill:#F1543F;" d="M388.8,308.9c0,10.2-19.4,36.7-19.4,36.7S350,319.2,350,308.9c0-10.2,8.7-18.5,19.4-18.5
	S388.8,298.7,388.8,308.9z"/>
<circle style="fill:#FFFFFF;" cx="369.4" cy="308.6" r="9.4"/>
<g>
</g>
<g>
</g>
<g>
</g>
<g>
</g>
<g>
</g>
<g>
</g>
<g>
</g>
<g>
</g>
<g>
</g>
<g>
</g>
<g>
</g>
<g>
</g>
<g>
</g>
<g>
</g>
<g>
</g>
</svg>
